<?xml version="1.0" encoding="utf-8"?>
<!-- Generator: Adobe Illustrator 23.0.1, SVG Export Plug-In . SVG Version: 6.00 Build 0)  -->
<svg version="1.1" id="レイヤー_1" xmlns="http://www.w3.org/2000/svg" xmlns:xlink="http://www.w3.org/1999/xlink" x="0px"
	 y="0px" viewBox="0 0 600 160" style="enable-background:new 0 0 600 160;" xml:space="preserve">
<style type="text/css">
	.st0{fill:#FFFFFF;}
	.st1{fill:#1F2020;}
	.st2{fill:#ADADAD;}
	.st3{fill:#A5A5A5;}
</style>
<rect x="688.86" y="-7.21" class="st0" width="723.07" height="1197.12"/>
<text transform="matrix(1 0 0 1 732.0713 -54.686)" style="font-family:'GothIWA-Hv-V3'; font-size:122.6111px;">MACHIYA</text>
<text transform="matrix(1 0 0 1 722.9999 248.2353)" style="font-family:'Arial-Black'; font-size:113.1423px;">MACHIYA</text>
<text transform="matrix(1 0 0 1 723.001 372.7305)" style="font-family:'Avenir-Black'; font-size:125.1882px;">MACHIYA</text>
<text transform="matrix(1 0 0 1 723.001 372.7305)" style="font-family:'Avenir-Black'; font-size:125.1882px;">MACHIYA</text>
<text transform="matrix(1 0 0 1 723.001 498.7305)" style="font-family:'AvenirNext-Bold'; font-size:125.1882px;">MACHIYA</text>
<text transform="matrix(1 0 0 1 723.001 630.4982)" style="font-family:'DINAlternate-Bold'; font-size:155.189px;">MACHIYA</text>
<text transform="matrix(1 0 0 1 723.001 760.4982)" style="font-family:'DINCondensed-Bold'; font-size:155.189px;">MACHIYA</text>
<text transform="matrix(1 0 0 1 723.002 987.8154)" style="font-family:'GillSans-Bold'; font-size:116.9147px;">MACHIYA</text>
<text transform="matrix(1 0 0 1 723.0021 1108.3955)" style="font-family:'Helvetica-Bold'; font-size:132.3438px;">MACHIYA</text>
<text transform="matrix(1 0 0 1 723.0029 1313.2754)" style="font-family:'HoeflerText-Black'; font-size:115.4316px;">MACHIYA</text>
<text transform="matrix(1 0 0 1 719 125.332)"><tspan x="0" y="0" style="font-family:'GothIWA-Hv-V3'; font-size:122.6111px;">MACHI</tspan><tspan x="425.79" y="0" style="font-family:'GothIWA-Hv-V3'; font-size:122.6111px; letter-spacing:-9;">Y</tspan><tspan x="503.87" y="0" style="font-family:'GothIWA-Hv-V3'; font-size:122.6111px;">A</tspan></text>
<g>
	<path class="st1" d="M2.37,63.69L12.88,1.73h15.94l12.41,33.03L53.56,1.73H69.5l10.52,61.96H64l-5.34-35.66L44.03,63.69h-6.41
		L23.73,28.02l-5.34,35.66H2.37z"/>
	<path class="st1" d="M154.47,52.92h-23.01l-3.7,10.76h-17.17l23.58-61.96h17.59l23.58,61.96h-17.17L154.47,52.92z M150.2,40.68
		l-7.23-20.63l-7.23,20.63H150.2z"/>
	<path class="st1" d="M253.33,22.43c-3.73-4.55-8.33-6.82-13.81-6.82c-2.41,0-4.64,0.44-6.7,1.31c-2.05,0.88-3.82,2.07-5.3,3.57
		c-1.48,1.51-2.64,3.3-3.49,5.38c-0.85,2.08-1.27,4.33-1.27,6.74c0,2.47,0.42,4.74,1.27,6.82c0.85,2.08,2.03,3.89,3.53,5.42
		c1.51,1.53,3.27,2.74,5.3,3.62c2.03,0.88,4.22,1.31,6.57,1.31c5.15,0,9.78-2.19,13.89-6.57v19.06l-1.64,0.58
		c-2.47,0.88-4.77,1.52-6.9,1.93c-2.14,0.41-4.25,0.62-6.33,0.62c-4.27,0-8.37-0.81-12.29-2.42c-3.92-1.62-7.37-3.89-10.35-6.82
		c-2.99-2.93-5.38-6.41-7.19-10.44c-1.81-4.03-2.71-8.42-2.71-13.19s0.89-9.13,2.67-13.11c1.78-3.97,4.16-7.4,7.15-10.27
		c2.99-2.88,6.45-5.12,10.39-6.74C230.07,0.81,234.21,0,238.53,0c2.47,0,4.89,0.26,7.27,0.78c2.38,0.52,4.89,1.33,7.52,2.42V22.43z"
		/>
	<path class="st1" d="M310.85,25.64h23.26V1.73h16.11v61.96H334.1V38.13h-23.26v25.56h-16.11V1.73h16.11V25.64z"/>
	<path class="st1" d="M410.52,1.73v61.96h-16.11V1.73H410.52z"/>
	<path class="st1" d="M472.98,33.94l-22.6-32.21h19.23l11.5,16.93l11.42-16.93h19.23l-22.68,32.21v29.75h-16.11V33.94z"/>
	<path class="st1" d="M576.76,52.92h-23.01l-3.7,10.76h-17.17l23.58-61.96h17.59l23.58,61.96h-17.17L576.76,52.92z M572.49,40.68
		l-7.23-20.63l-7.23,20.63H572.49z"/>
</g>
<rect y="87" class="st2" width="600" height="3"/>
<text transform="matrix(1 0 0 1 23.9297 -170.613)"><tspan x="0" y="0" style="font-family:'Futura-Bold'; font-size:79.7045px; letter-spacing:25;">MA</tspan><tspan x="197.43" y="0" style="font-family:'Futura-Bold'; font-size:79.7045px; letter-spacing:30;">CH</tspan><tspan x="377.56" y="0" style="font-family:'Futura-Bold'; font-size:79.7045px; letter-spacing:33;">I</tspan><tspan x="439.25" y="0" style="font-family:'Futura-Bold'; font-size:79.7045px; letter-spacing:20;">Y</tspan><tspan x="517.6" y="0" style="font-family:'Futura-Bold'; font-size:79.7045px; letter-spacing:25;">A</tspan></text>
<g>
	<g>
		<path d="M1.14,157.34v-43.73h9.18c4.4,0,7.87,0.43,10.42,1.3c2.74,0.85,5.22,2.29,7.45,4.33c4.51,4.12,6.77,9.53,6.77,16.23
			c0,6.72-2.35,12.16-7.05,16.31c-2.36,2.08-4.83,3.52-7.42,4.33c-2.42,0.81-5.84,1.22-10.28,1.22H1.14z M7.74,151.14h2.97
			c2.96,0,5.43-0.31,7.39-0.93c1.96-0.66,3.74-1.71,5.32-3.14c3.25-2.96,4.87-6.83,4.87-11.58c0-4.8-1.6-8.68-4.81-11.67
			c-2.89-2.66-7.15-3.99-12.77-3.99H7.74V151.14z"/>
		<path d="M89.42,119.81H71.89v10.51h17.02v6.2H71.89v14.61h17.53v6.2H65.29v-43.73h24.13V119.81z"/>
		<path d="M144.85,120.12l-5.35,3.17c-1-1.74-1.95-2.87-2.86-3.4c-0.94-0.6-2.16-0.91-3.65-0.91c-1.83,0-3.35,0.52-4.56,1.56
			c-1.21,1.02-1.81,2.3-1.81,3.85c0,2.13,1.59,3.85,4.76,5.15l4.36,1.78c3.55,1.44,6.15,3.19,7.79,5.25s2.46,4.6,2.46,7.6
			c0,4.02-1.34,7.34-4.02,9.97c-2.7,2.64-6.05,3.96-10.05,3.96c-3.79,0-6.93-1.12-9.4-3.37c-2.44-2.25-3.96-5.41-4.56-9.49
			l6.68-1.47c0.3,2.57,0.83,4.34,1.59,5.32c1.36,1.89,3.34,2.83,5.95,2.83c2.06,0,3.77-0.69,5.13-2.07
			c1.36-1.38,2.04-3.12,2.04-5.24c0-0.85-0.12-1.63-0.35-2.34c-0.24-0.71-0.6-1.36-1.1-1.95c-0.5-0.59-1.15-1.15-1.94-1.67
			c-0.79-0.52-1.74-1.01-2.83-1.49l-4.22-1.76c-5.99-2.53-8.98-6.23-8.98-11.1c0-3.29,1.26-6.03,3.77-8.24
			c2.51-2.23,5.64-3.34,9.37-3.34C138.08,112.76,142.02,115.22,144.85,120.12z"/>
		<path d="M182.58,113.61v43.73h-6.6v-43.73H182.58z"/>
		<path d="M237.61,134.57h18.07v1.44c0,3.29-0.39,6.19-1.16,8.72c-0.76,2.34-2.03,4.53-3.82,6.57c-4.06,4.57-9.22,6.85-15.49,6.85
			c-6.12,0-11.36-2.21-15.72-6.63c-4.36-4.44-6.54-9.76-6.54-15.97c0-6.34,2.22-11.72,6.66-16.14c4.44-4.44,9.84-6.66,16.2-6.66
			c3.42,0,6.61,0.7,9.57,2.1c2.83,1.4,5.62,3.66,8.35,6.8l-4.7,4.5c-3.59-4.78-7.96-7.17-13.11-7.17c-4.63,0-8.51,1.6-11.64,4.79
			c-3.13,3.13-4.7,7.06-4.7,11.78c0,4.87,1.75,8.88,5.24,12.04c3.27,2.93,6.81,4.39,10.62,4.39c3.25,0,6.16-1.09,8.75-3.29
			c2.59-2.21,4.03-4.85,4.33-7.93h-10.9V134.57z"/>
		<path d="M286.02,157.34v-46.7L317.91,144v-30.39h6.6V160l-31.89-33.28v30.61H286.02z"/>
		<path d="M394.61,119.81v37.52h-6.6v-37.52h-10.05v-6.2h26.68v6.2H394.61z"/>
		<path d="M456.69,119.81h-17.53v10.51h17.02v6.2h-17.02v14.61h17.53v6.2h-24.13v-43.73h24.13V119.81z"/>
		<path d="M513.09,146.72h-18.72l-4.87,10.62h-7.11l21.64-46.47l20.87,46.47h-7.22L513.09,146.72z M510.4,140.52l-6.49-14.87
			l-6.8,14.87H510.4z"/>
		<path d="M550.87,157.34l9.2-47.01l15.01,33.98l15.55-33.98l8.27,47.01h-6.77l-4.22-26.39l-12.94,28.41l-12.57-28.43l-4.7,26.42
			H550.87z"/>
	</g>
</g>
<g>
	<text transform="matrix(1 0 0 1 2.8995 -71.3628)"><tspan x="0" y="0" style="font-family:'Futura-Medium'; font-size:58px; letter-spacing:22;">DESIG</tspan><tspan x="284.88" y="0" style="font-family:'Futura-Medium'; font-size:58px; letter-spacing:47;">N</tspan><tspan x="381.41" y="0" style="font-family:'Futura-Medium'; font-size:58px; letter-spacing:22;">TEAM</tspan></text>
</g>
<rect x="23.93" y="-147.87" class="st3" width="581.96" height="2"/>
</svg>
